<?xml version="1.0" encoding="UTF-8"?>
<svg width="24px" height="24px" viewBox="0 0 24 24" version="1.1" xmlns="http://www.w3.org/2000/svg" xmlns:xlink="http://www.w3.org/1999/xlink">
    <title>Google.icon</title>
    <g id="web-Hifi" stroke="none" stroke-width="1" fill="none" fill-rule="evenodd">
        <g id="Login-2" transform="translate(-540.000000, -714.000000)" fill-rule="nonzero">
            <g id="Group-7" transform="translate(494.000000, 695.000000)">
                <g id="Google" transform="translate(46.000000, 19.000000)">
                    <path d="M24,12.2357858 C24,11.2472411 23.9179552,10.5258632 23.7403956,9.77777778 L12.1945946,9.77777778 L12.1945946,14.2395826 L18.9717194,14.2395826 C18.8351351,15.348403 18.0972973,17.0182644 16.4576263,18.1403464 L16.4346424,18.289724 L20.0852112,21.0546837 L20.3381277,21.0793651 C22.6609086,18.982 24,15.8960903 24,12.2357858" id="Path" fill="#4285F4"></path>
                    <path d="M12.2491004,24 C15.5591039,24 18.3378803,22.9306077 20.3675676,21.0860556 L16.4990104,18.1452958 C15.4637891,18.8537394 14.074354,19.3483046 12.2491004,19.3483046 C9.00717887,19.3483046 6.25563518,17.2497891 5.27478559,14.3492063 L5.1310153,14.3611858 L1.34678583,17.2350452 L1.2972973,17.3700439 C3.31327422,21.2998419 7.4542531,24 12.2491004,24" id="Path" fill="#34A853"></path>
                    <path d="M5.31891892,14.3941314 C5.05845907,13.6500986 4.90772125,12.8528486 4.90772125,12.0291275 C4.90772125,11.2053147 5.05845907,10.4081563 5.30521548,9.66412354 L5.29831651,9.50566278 L1.44216881,6.6031746 L1.31600266,6.66133795 C0.479809374,8.28230908 0,10.1025927 0,12.0291275 C0,13.9556622 0.479809374,15.7758543 1.31600266,17.3968254 L5.31891892,14.3941314" id="Path" fill="#FBBC05"></path>
                    <path d="M12.2765665,4.65160329 C14.5843548,4.65160329 16.141081,5.62737197 17.0287426,6.44280091 L20.4972973,3.12782287 C18.3670602,1.18964715 15.5948712,0 12.2765665,0 C7.46969418,0 3.31833011,2.70006593 1.2972973,6.62986394 L5.27111023,9.65079365 C6.26807024,6.7502109 9.02651455,4.65160329 12.2765665,4.65160329" id="Path" fill="#EB4335"></path>
                </g>
            </g>
        </g>
    </g>
</svg>